<svg width="84" height="65" viewBox="0 0 84 65" fill="none" xmlns="http://www.w3.org/2000/svg">
<path fill-rule="evenodd" clip-rule="evenodd" d="M63.0705 37.6678C66.0745 37.6678 69.2688 37.972 72.577 38.5805V44.2845C70.2195 43.676 67.0253 43.3718 63.0705 43.3718C55.8455 43.3718 50.1798 44.6265 45.9588 47.1363V40.71C50.4078 38.6945 56.1118 37.6678 63.0705 37.6678ZM45.9588 30.557C50.8643 28.5415 56.568 27.553 63.0705 27.553C66.0745 27.553 69.2688 27.819 72.577 28.4275V34.1315C70.2195 33.523 67.0253 33.2188 63.0705 33.2188C55.8455 33.2188 50.1798 34.5118 45.9588 36.9833V30.557ZM63.0705 23.1038C55.8455 23.1038 50.1798 24.3208 45.9588 26.9065V20.594C50.636 18.4648 56.34 17.4 63.0705 17.4C66.0745 17.4 69.2688 17.7043 72.577 18.2745V24.1685C69.7633 23.446 66.531 23.1038 63.0705 23.1038ZM76.3798 53.5248V9.79477C72.425 8.53977 67.976 7.89351 63.0705 7.89351C55.2753 7.89351 48.3165 9.79476 42.1563 13.5973V57.3273C48.3165 53.5248 55.2753 51.6235 63.0705 51.6235C67.5958 51.6235 72.0448 52.2318 76.3798 53.5248ZM63.0705 0.288269C72.0068 0.288269 79.0035 2.18952 83.985 5.99202V61.358C83.985 61.8145 83.7948 62.2708 83.3765 62.689C82.9583 63.0313 82.502 63.3355 82.0835 63.3355C81.6653 63.3355 81.361 63.2595 81.133 63.1453C76.2655 60.5215 70.2195 59.2288 63.0705 59.2288C55.2753 59.2288 48.3165 61.13 42.1563 64.9325C37.0608 61.13 30.102 59.2288 21.2418 59.2288C14.9295 59.2288 8.88327 60.5975 3.17952 63.2975C3.06527 63.3355 2.91326 63.3355 2.72301 63.4115C2.57101 63.4495 2.41876 63.4875 2.22876 63.4875C1.81051 63.4875 1.35426 63.3355 0.935764 63.0313C0.517514 62.613 0.327515 62.1948 0.327515 61.7003V5.99202C5.42301 2.18952 12.4198 0.288269 21.2418 0.288269C30.102 0.288269 37.0608 2.18952 42.1563 5.99202C47.2518 2.18952 54.2105 0.288269 63.0705 0.288269Z" fill="#62CC6D"/>
</svg>
