<svg width="94" height="73" viewBox="0 0 94 73" fill="none" xmlns="http://www.w3.org/2000/svg">
<path fill-rule="evenodd" clip-rule="evenodd" d="M47.4078 16.4285L41.1793 16.85C37.152 12.0733 25.866 0.0380249 14.627 0.0380249C14.627 0.0380249 5.40151 13.8998 14.4395 32.3973C11.864 36.2843 10.2718 38.298 9.94402 42.934L0.905762 44.292L1.88927 48.8815L10.1313 47.6638L10.787 50.9888L3.43477 55.3908L5.63577 59.5585L12.426 55.3908C17.8113 66.8173 31.4388 72.624 47.4078 72.624C63.3765 72.624 77.004 66.8173 82.3893 55.3908L89.1798 59.5585L91.3808 55.3908L84.0285 50.9888L84.684 47.6638L92.926 48.8815L93.9095 44.292L84.8713 42.934C84.5435 38.298 82.9513 36.2843 80.3758 32.3973C89.4138 13.8998 80.1883 0.0380249 80.1883 0.0380249C68.9493 0.0380249 57.6633 12.0733 53.636 16.85L47.4078 16.4285ZM33.3588 30.4773C35.945 30.4773 38.0418 32.574 38.0418 35.1603C38.0418 37.7468 35.945 39.8433 33.3588 39.8433C30.7725 39.8433 28.6758 37.7468 28.6758 35.1603C28.6758 32.574 30.7725 30.4773 33.3588 30.4773ZM61.4565 30.4773C64.0428 30.4773 66.1395 32.574 66.1395 35.1603C66.1395 37.7468 64.0428 39.8433 61.4565 39.8433C58.8703 39.8433 56.7735 37.7468 56.7735 35.1603C56.7735 32.574 58.8703 30.4773 61.4565 30.4773ZM42.7248 44.5263H52.0905L48.8125 51.0355C49.749 54.0328 52.3715 56.2338 55.6028 56.2338C59.4823 56.2338 62.6273 53.0888 62.6273 49.2093H64.9688C64.9688 54.3818 60.7755 58.575 55.6028 58.575C52.0905 58.575 49.0468 56.655 47.4078 53.8923C45.7685 56.655 42.7248 58.575 39.2125 58.575C34.0398 58.575 29.8465 54.3818 29.8465 49.2093H32.188C32.188 53.0888 35.333 56.2338 39.2125 56.2338C42.4438 56.2338 45.0663 54.0328 46.0028 51.0355L42.7248 44.5263Z" fill="#62CC6D"/>
</svg>
