<svg width="24" height="24" viewBox="0 0 24 24" fill="none" xmlns="http://www.w3.org/2000/svg">
<g clip-path="url(#clip0_821_56)">
<path d="M11.5 19.6L10 20.9C3.4 15 0 11.9 0 8.1C0 6.9 0.4 5.8 1 4.9C1 5.1 1 5.3 1 5.5C1 10.2 4.9 13.7 11.5 19.6ZM13.1 15.5C17.8 11.2 21 8.4 21.1 5.5C21.1 3.5 19.6 2 17.6 2C16 2 14.5 3 14 4.4H12.1C11.5 3 10 2 8.5 2C6.5 2 5 3.5 5 5.5C5 8.4 8.1 11.2 12.9 15.5L13 15.6L13.1 15.5ZM17.5 0C20.6 0 23 2.4 23 5.5C23 9.2 19.6 12.3 13 18.3C6.4 12.4 3 9.3 3 5.5C3 2.4 5.4 0 8.5 0C10.2 0 11.9 0.8 13 2.1C14.1 0.8 15.8 0 17.5 0Z" fill="black"/>
</g>
<defs>
<clipPath id="clip0_821_56">
<rect width="24" height="24" fill="white"/>
</clipPath>
</defs>
</svg>
