<svg width="79" height="57" viewBox="0 0 79 57" fill="none" xmlns="http://www.w3.org/2000/svg">
<path fill-rule="evenodd" clip-rule="evenodd" d="M31.67 40.7365L51.7493 28.6102L31.67 16.4842V40.7365ZM76.3943 9.08723C76.897 10.987 77.2452 13.5335 77.4775 16.767C77.7482 20.0007 77.8642 22.7897 77.8642 25.215L78.0965 28.6102C78.0965 37.4625 77.4775 43.9702 76.3943 48.1335C75.427 51.7715 73.183 54.1157 69.701 55.1262C67.8825 55.6517 64.5553 56.0157 59.4485 56.2582C54.419 56.541 49.815 56.6622 45.5592 56.6622L39.4077 56.905C23.197 56.905 13.0992 56.2582 9.11424 55.1262C5.63224 54.1157 3.38825 51.7715 2.42125 48.1335C1.91825 46.2337 1.57 43.6872 1.33775 40.4537C1.067 37.22 0.951004 34.431 0.951004 32.0057L0.71875 28.6102C0.71875 19.7582 1.33775 13.2505 2.42125 9.08723C3.38825 5.44923 5.63224 3.10499 9.11424 2.09424C10.9327 1.56899 14.26 1.20498 19.3667 0.962479C24.3965 0.679729 29.0002 0.558487 33.256 0.558487L39.4077 0.315735C55.6182 0.315735 65.716 0.962488 69.701 2.09424C73.183 3.10499 75.427 5.44923 76.3943 9.08723Z" fill="#62CC6D"/>
</svg>
